<svg height="496pt" viewBox="-32 0 496 496" width="496pt" xmlns="http://www.w3.org/2000/svg" fill = "white"><path d="m200 96h32v16h-32zm0 0"/><path d="m184 64h64v16h-64zm0 0"/><path d="m336 320h-56v-36.214844c26.910156-18.824218 45.128906-49.136718 47.59375-83.785156h8.40625c13.230469 0 24-10.769531 24-24v-36.320312c9.792969-8.792969 16-21.503907 16-35.679688 0-2.464844-.230469-4.984375-.710938-7.617188 10.445313-7.4375 16.710938-19.351562 16.710938-32.382812 0-22.054688-17.945312-40-40-40-2.089844 0-4.167969.175781-6.265625.535156-8.398437-14.917968-24.382813-24.535156-41.734375-24.535156-13.183594 0-25.144531 5.34375-33.824219 13.984375-16.527343-9.152344-35.113281-13.984375-54.175781-13.984375-19.054688 0-37.632812 4.847656-54.160156 14-8.6875-8.648438-20.648438-14-33.839844-14-17.359375 0-33.335938 9.617188-41.734375 24.535156-2.097656-.359375-4.175781-.535156-6.265625-.535156-22.054688 0-40 17.945312-40 40 0 13.03125 6.265625 24.945312 16.710938 32.382812-.480469 2.632813-.710938 5.152344-.710938 7.617188 0 14.167969 6.207031 26.878906 16 35.679688v36.320312c0 13.230469 10.769531 24 24 24h8.40625c2.464844 34.648438 20.683594 64.960938 47.59375 83.785156v36.214844h-56c-52.9375 0-96 43.0625-96 96v72c0 4.425781 3.574219 8 8 8h416c4.425781 0 8-3.574219 8-8v-72c0-52.9375-43.0625-96-96-96zm-132.777344 55.585938-45.503906 34.117187-12.277344-73.703125h11.597656zm7.121094 62.070312c1.558594 1.558594 3.609375 2.34375 5.65625 2.34375s4.097656-.785156 5.65625-2.34375l5.695312-5.695312 10.671876 48.039062h-44.046876l10.671876-48.039062zm5.65625-16.96875-19.824219-19.824219 19.824219-14.863281 19.824219 14.863281zm12.777344-45.101562 46.183594-39.585938h11.597656l-12.277344 73.703125zm115.222656-199.585938c0 4.40625-3.585938 8-8 8h-8v-32c5.617188 0 10.984375-1.023438 16-2.800781zm-40-160c13.167969 0 25.167969 8.351562 29.839844 20.777344 1.527344 4.078125 6.0625 6.167968 10.167968 4.71875 2.832032-1 5.457032-1.496094 7.992188-1.496094 13.230469 0 24 10.769531 24 24 0 9.097656-5.144531 17.296875-13.414062 21.40625-3.496094 1.730469-5.226563 5.730469-4.113282 9.464844 1.039063 3.457031 1.527344 6.359375 1.527344 9.128906 0 17.648438-14.351562 32-32 32s-32-14.351562-32-32c0-4.824219 1.191406-9.632812 3.550781-14.296875 1.066407-2.109375 1.144531-4.574219.21875-6.75-.929687-2.167969-2.777343-3.824219-5.035156-4.503906-13.589844-4.144531-22.734375-16.386719-22.734375-30.449219 0-17.648438 14.351562-32 32-32zm-43.167969 11.152344c-3.0625 6.3125-4.832031 13.367187-4.832031 20.847656 0 18.230469 10.167969 34.40625 26.03125 42.503906-1.351562 4.425782-2.03125 8.9375-2.03125 13.496094 0 4.710938.710938 9.246094 1.984375 13.550781-5.136719-3.496093-11.320313-5.550781-17.984375-5.550781-14.871094 0-27.289062 10.238281-30.863281 24h-34.273438c-3.574219-13.761719-15.992187-24-30.863281-24-6.664062 0-12.847656 2.054688-17.984375 5.550781 1.273437-4.304687 1.984375-8.839843 1.984375-13.550781 0-4.558594-.679688-9.070312-2.03125-13.496094 15.863281-8.097656 26.03125-24.273437 26.03125-42.503906 0-7.488281-1.769531-14.542969-4.839844-20.863281 27.609375-14.457031 62.046875-14.433594 89.671875.015625zm19.167969 116.847656c0 8.824219-7.175781 16-16 16s-16-7.175781-16-16 7.175781-16 16-16 16 7.175781 16 16zm-96 0c0 8.824219-7.175781 16-16 16s-16-7.175781-16-16 7.175781-16 16-16 16 7.175781 16 16zm-114.585938-58.59375c-8.269531-4.109375-13.414062-12.308594-13.414062-21.40625 0-13.230469 10.769531-24 24-24 2.527344 0 5.152344.496094 8 1.503906 4.097656 1.441406 8.617188-.640625 10.160156-4.71875 4.671875-12.433594 16.671875-20.785156 29.839844-20.785156 17.648438 0 32 14.351562 32 32 0 14.0625-9.144531 26.304688-22.742188 30.441406-2.257812.6875-4.105468 2.335938-5.035156 4.511719-.917968 2.167969-.839844 4.648437.21875 6.75 2.367188 4.664063 3.558594 9.472656 3.558594 14.296875 0 17.648438-14.351562 32-32 32s-32-14.351562-32-32c0-2.769531.488281-5.671875 1.519531-9.128906 1.121094-3.734375-.617187-7.734375-4.105469-9.464844zm18.585938 90.59375v-26.800781c5.015625 1.785156 10.382812 2.800781 16 2.800781v32h-8c-4.414062 0-8-3.59375-8-8zm32-26.800781c6.175781-2.191407 11.761719-5.605469 16.480469-9.960938-.234375 1.570313-.480469 3.128907-.480469 4.761719 0 17.648438 14.351562 32 32 32 14.871094 0 27.289062-10.238281 30.863281-24h34.273438c3.574219 13.761719 15.992187 24 30.863281 24 17.648438 0 32-14.351562 32-32 0-1.632812-.246094-3.191406-.480469-4.761719 4.71875 4.363281 10.304688 7.769531 16.480469 9.960938v42.800781c0 15.097656-3.601562 29.328125-9.832031 42.046875-6.222657-24.136719-28.121094-42.046875-54.167969-42.046875h-64c-26.046875 0-47.945312 17.910156-54.167969 42.046875-6.230469-12.71875-9.832031-26.949219-9.832031-42.046875zm167.191406 90.800781h-23.191406c-19.320312 0-35.480469-13.769531-39.191406-32h23.191406c19.320312 0 35.480469 13.769531 39.191406 32zm-80-32c-3.71875 18.230469-19.871094 32-39.191406 32h-23.191406c3.71875-18.230469 19.871094-32 39.191406-32zm-62.542968 48h23.351562c20.382812 0 38.199219-10.984375 48-27.304688 9.800781 16.320313 27.617188 27.304688 48 27.304688h23.351562c-17.582031 19.585938-43.015624 32-71.351562 32s-53.769531-12.414062-71.351562-32zm71.351562 48c17.191406 0 33.425781-4.007812 48-10.960938v31.289063l-48 41.136719-48-41.136719v-31.289063c14.574219 6.953126 30.808594 10.960938 48 10.960938zm-200 112c0-44.113281 35.886719-80 80-80h33.222656l14.890625 89.3125c.460938 2.757812 2.320313 5.078125 4.910157 6.121094.960937.382812 1.96875.566406 2.976562.566406 1.703125 0 3.390625-.542969 4.800781-1.601562l26.445313-19.839844 7.992187 7.992187-13.652343 61.449219h-161.585938zm400 64h-161.585938l-13.652343-61.449219 7.992187-7.992187 26.445313 19.839844c1.410156 1.058593 3.097656 1.601562 4.800781 1.601562 1.007812 0 2.015625-.183594 2.976562-.566406 2.589844-1.042969 4.457032-3.363282 4.910157-6.121094l14.890625-89.3125h33.222656c44.113281 0 80 35.886719 80 80zm0 0"/></svg>